<svg xmlns="http://www.w3.org/2000/svg" aria-hidden="true" style="position:absolute;width:0;height:0;overflow:hidden">
    <defs>
        <symbol id="logo" viewBox="0 0 32 32">
            <path fill="#fbfbfb" d="M29.08.31h-4c-1.24 0-2.25.99-2.25 2.2v3.93c0 1.21 1 2.2 2.24 2.2h4.01c1.24 0 2.24-.99 2.24-2.2V2.5c0-1.21-1-2.2-2.24-2.2zM6.73 23.04H2.41c-1.33 0-2.41.98-2.41 2.2v3.92c0 1.22 1.08 2.2 2.41 2.2h4.32c1.33 0 2.41-.98 2.41-2.2v-3.93c0-1.2-1.08-2.19-2.41-2.19zM6.25 11.58h-4C1 11.58 0 12.57 0 13.78v3.93c0 1.2 1 2.2 2.24 2.2h4.01c1.24 0 2.24-1 2.24-2.2v-3.93c0-1.22-1-2.2-2.24-2.2zM17.77 22.98h-4.01c-1.24 0-2.24.98-2.24 2.2v3.92c0 1.21 1 2.2 2.24 2.2h4c1.24 0 2.25-.99 2.25-2.2v-3.93c0-1.21-1-2.2-2.24-2.2zM6.25.09h-4C1 .09 0 1.07 0 2.29V6.2c0 1.21 1 2.2 2.24 2.2h4.01c1.24 0 2.24-.99 2.24-2.2V2.28c0-1.21-1-2.2-2.24-2.2zM18.08 11.7h-4.01c-1.24 0-2.24.98-2.24 2.2v3.92c0 1.21 1 2.2 2.24 2.2h4c1.24 0 2.25-.99 2.25-2.2V13.9c0-1.21-1-2.2-2.24-2.2zM29.33 22.98h-4c-1.24 0-2.25.98-2.25 2.2v3.92c0 1.21 1 2.2 2.24 2.2h4.01c1.24 0 2.24-.99 2.24-2.2v-3.93c0-1.21-1-2.2-2.24-2.2zM17.6.22h-4.02c-1.23 0-2.24.99-2.24 2.2v3.93c0 1.21 1 2.2 2.24 2.2h4.01c1.24 0 2.24-1 2.24-2.2V2.42c0-1.21-1-2.2-2.24-2.2zM29.04 11.93h-4c-1.24 0-2.25.98-2.25 2.2v3.92c0 1.21 1 2.2 2.24 2.2h4.01c1.24 0 2.24-.99 2.24-2.2v-3.93c0-1.21-1-2.2-2.24-2.2z" style="fill:var(--color1, #fbfbfb)"/>
        </symbol>
        <symbol id="mobile-menu" viewBox="0 0 32 32">
            <path fill="none" stroke="#fbfbfb" stroke-linecap="round" stroke-linejoin="round" stroke-width="3" d="M5.33 8h21.34M5.33 16H16M5.33 24h21.34" style="stroke:var(--color1, #fbfbfb)"/>
        </symbol>
        <symbol id="close-mobile-menu" viewBox="0 0 32 32">
            <path fill="none" stroke="#fbfbfb" stroke-linecap="round" stroke-linejoin="round" stroke-width="3" d="M24 8 8 24M8 8l16 16" style="stroke:var(--color1, #fbfbfb)"/>
        </symbol>
        <symbol id="logo-text" viewBox="0 0 395 32">
            <path fill="#fbfbfb" style="fill: var(--color1, #fbfbfb)" d="M16.8 32c-10.107 0-16.8-6.267-16.8-16.053 0-9.547 6.613-15.947 16.56-15.947 8.373 0 14.267 4.4 15.12 11.013h-6.933c-0.667-3.813-3.867-5.947-8.187-5.947-6.027 0-9.6 4.373-9.6 10.88 0 7.2 4 10.987 9.867 10.987 5.067 0 8.293-2.56 8.64-6.4v-0.427h-9.333v-4.8h15.787v3.947c-0.267 7.627-6.32 12.747-15.12 12.747zM36.107 31.573v-31.147h16.8c8.587 0 12 3.733 12 9.067 0 4.853-3.84 7.147-8.293 7.707v0.133c2.853 0.64 4.16 2.027 5.333 4.8 1.547 3.52 1.787 7.68 3.733 9.173v0.267h-7.653c-1.6-1.44-2-6.027-2.853-8.8-0.88-2.853-2.747-3.2-6.24-3.2h-6.133v12h-6.667zM42.827 14.64h9.36c3.947 0 5.76-2.053 5.76-4.693 0-2.907-2.24-4.56-5.76-4.56h-9.36v9.253zM69.333 31.573v-31.147h23.893v4.96h-17.227v7.413h15.52v4.96h-15.52v8.747h17.44v5.067h-24.107zM98.133 31.573v-31.147h23.867v4.96h-17.173v7.413h15.493v4.96h-15.493v8.747h17.413v5.067h-24.107zM126.907 31.573v-31.147h8.133l11.573 17.2c3.547 5.2 4 6.907 4 6.907h0.133l-0.107-24.107h6.693v31.147h-8.187l-12-17.707c-2.747-4-3.467-6.453-3.467-6.453h-0.080v24.16h-6.693zM162.4 31.573v-6.32h6.96v6.32h-6.96zM174.4 31.573v-31.147h6.72v12.453h16v-12.453h6.72v31.147h-6.693v-13.733h-16.027v13.733h-6.72zM206.72 31.573l13.387-31.147h7.28l13.6 31.147h-7.2l-2.8-7.173h-14.507l-2.827 7.173h-6.933zM218.4 19.467h10.667l-3.12-7.68c-2.133-5.68-2.187-6.72-2.187-6.72h-0.107s0 1.040-2.133 6.72l-3.12 7.68zM243.84 31.573v-31.147h16.8c8.587 0 11.973 3.733 11.973 9.067 0 4.853-3.84 7.147-8.267 7.707v0.133c2.853 0.64 4.16 2.027 5.333 4.8 1.547 3.52 1.787 7.68 3.733 9.173v0.267h-7.653c-1.6-1.44-2-6.027-2.88-8.8-0.853-2.853-2.72-3.2-6.213-3.2h-6.133v12h-6.693zM250.533 14.64h9.387c3.92 0 5.76-2.053 5.76-4.693 0-2.907-2.267-4.56-5.76-4.56h-9.387v9.253zM284.16 31.573l-12.8-31.147h7.147s6.933 17.44 7.68 19.573c1.147 3.413 1.68 5.173 1.68 5.173h0.080c-0.053 0 0.48-1.76 1.68-5.173 0.773-2.133 7.413-19.573 7.413-19.573h6.933l-12.347 31.147h-7.467zM306.72 31.573v-31.147h23.893v4.96h-17.173v7.413h15.493v4.96h-15.493v8.747h17.413v5.067h-24.133zM347.493 32c-8.907 0-14.267-4.32-14.267-10.72h7.653c-0.080 3.627 2.587 5.653 6.613 5.653 4.267 0 6.267-1.493 6.267-3.733 0-2.213-1.707-3.147-7.84-4.64-5.6-1.36-11.733-2.987-11.733-9.387 0-5.067 4.987-9.173 12.827-9.173 8.080 0 13.253 4.053 13.253 9.76h-7.413c-0.053-3.013-2.347-4.693-5.84-4.693-3.387 0-5.653 1.547-5.653 3.6 0 2.427 1.867 3.2 6.747 4.427 7.253 1.787 13.067 2.533 13.067 9.467 0 5.6-5.68 9.44-13.68 9.44zM372.107 31.573v-26.080h-10.587v-5.067h27.813v5.067h-10.533v26.080h-6.693z"></path>
        </symbol>
    </defs>
</svg>